<svg xmlns="http://www.w3.org/2000/svg" xmlns:xlink="http://www.w3.org/1999/xlink" width="23" height="28" viewBox="0 0 23 28">
  <defs>
    <clipPath id="clip-Artboard_2">
      <rect width="23" height="28"/>
    </clipPath>
  </defs>
  <g id="Artboard_2" data-name="Artboard – 2" clip-path="url(#clip-Artboard_2)">
    <g id="insurance" transform="translate(-58.324 2.416)">
      <path id="Path_12740" data-name="Path 12740" d="M78.448,4.724,73.923.2a.679.679,0,0,0-.48-.2H63.489A2.492,2.492,0,0,0,61,2.489v18.19a2.492,2.492,0,0,0,2.489,2.489h12.67a2.492,2.492,0,0,0,2.489-2.489V5.2A.679.679,0,0,0,78.448,4.724ZM74.122,2.317,76.33,4.525H74.122ZM76.158,21.81H63.489a1.133,1.133,0,0,1-1.131-1.131V2.489a1.133,1.133,0,0,1,1.131-1.131h9.276V5.2a.679.679,0,0,0,.679.679H77.29v14.8A1.133,1.133,0,0,1,76.158,21.81Z" fill="#0f0c75"/>
      <path id="Path_12741" data-name="Path 12741" d="M150.729,163.81a2.238,2.238,0,0,1-2.012-1.244l-.1-.191a.679.679,0,0,0-.607-.375h-3.62a.679.679,0,0,0-.607.375l-.1.191a2.238,2.238,0,0,1-2.012,1.244.679.679,0,0,0-.679.679v3.873a7.028,7.028,0,0,0,5.009,6.732.678.678,0,0,0,.39,0,7.028,7.028,0,0,0,5.009-6.732v-3.873A.679.679,0,0,0,150.729,163.81Zm-.679,4.552a5.634,5.634,0,0,1-3.846,5.369,5.634,5.634,0,0,1-3.846-5.369V165.1a3.581,3.581,0,0,0,2.449-1.747H147.6a3.581,3.581,0,0,0,2.449,1.747Z" transform="translate(-76.38 -154.67)" fill="#0f0c75"/>
      <path id="Path_12742" data-name="Path 12742" d="M202.612,263.914l-2.08,2.08-.8-.8a.679.679,0,1,0-.96.96l1.28,1.28a.679.679,0,0,0,.96,0l2.56-2.56a.679.679,0,0,0-.96-.96Z" transform="translate(-131.348 -251.783)" fill="#0f0c75"/>
    </g>
  </g>
</svg>
